screens;
 
http://baypic.net/img-5164791c95d73.html


Format                                   : AVI
Format/Info                              : Audio Video Interleave
File size                                : 366 MiB
Duration                                 : 31mn 45s
Overall bit rate                         : 1 613 Kbps
Writing application                      : VirtualDubMod 1.5.10.1 (build 2439/release)
Writing library                          : VirtualDubMod build 2439/release

Video
ID                                       : 0
Format                                   : MPEG-4 Visual
Format profile                           : Advanced Simple@L5
Format settings, BVOP                    : 1
Format settings, QPel                    : No
Format settings, GMC                     : No warppoints
Format settings, Matrix                  : Default (H.263)
Muxing mode                              : Packed bitstream
Codec ID                                 : XVID
Codec ID/Hint                            : XviD
Duration                                 : 31mn 45s
Bit rate                                 : 1 473 Kbps
Width                                    : 576 pixels
Height                                   : 320 pixels
Display aspect ratio                     : 16:9
Frame rate                               : 29.970 fps
Color space                              : YUV
Chroma subsampling                       : 4:2:0
Bit depth                                : 8 bits
Scan type                                : Progressive
Compression mode                         : Lossy
Bits/(Pixel*Frame)                       : 0.267
Stream size                              : 335 MiB (91%)
Writing library                          : XviD 1.1.0 Beta2 (UTC 2005-04-04)

Audio
ID                                       : 1
Format                                   : MPEG Audio
Format version                           : Version 1
Format profile                           : Layer 3
Mode                                     : Dual mono
Codec ID                                 : 55
Codec ID/Hint                            : MP3
Duration                                 : 31mn 45s
Bit rate mode                            : Constant
Bit rate                                 : 128 Kbps
Channel(s)                               : 2 channels
Sampling rate                            : 48.0 KHz
Compression mode                         : Lossy
Stream size                              : 29.1 MiB (8%)
Alignment                                : Aligned on interleaves
Interleave, duration                     : 33 ms (1.00 video frame)
Interleave, preload duration             : 504 ms